<svg width="414" height="164" viewBox="0 0 414 164" fill="none" xmlns="http://www.w3.org/2000/svg">
    <path d="M0 101.055C0 90.0569 7.72762 81.0558 18.7257 81.0558C29.7238 81.0558 29.4633 83.5449 32.9364 87.0758L28.8266 92.1118C25.9324 89.2465 22.8066 87.3074 18.6678 87.3074C11.7796 87.3074 6.68569 93.3853 6.68569 100.968V101.084C6.68569 108.667 11.7217 114.803 18.6678 114.803C25.614 114.803 25.9903 112.921 29.0871 109.825L33.1969 114.253C29.4055 118.449 25.2667 121.112 18.4652 121.112C7.87233 121.112 0 112.314 0 101.2V101.055Z" fill="#35455B"/>
    <path d="M38.8696 91.2146H45.1501V107.799C45.1501 112.343 47.2919 114.889 51.0254 114.889C54.759 114.889 57.1902 112.227 57.1902 107.712V91.2435H63.5285V120.446H57.1902V115.902C55.4247 118.681 52.8777 121.054 48.6232 121.054C42.4585 121.054 38.8696 116.626 38.8696 109.825V91.2146Z" fill="#35455B"/>
    <path d="M69.1434 116.597L71.9508 112.053C74.9608 114.426 78.1155 115.642 80.9229 115.642C83.7303 115.642 85.1774 114.426 85.1774 112.487V112.371C85.1774 110.114 82.2832 109.333 79.0416 108.291C74.9897 107.075 70.4747 105.31 70.4747 99.7237V99.6079C70.4747 94.0799 74.7871 90.6936 80.2283 90.6936C85.6695 90.6936 87.3771 91.9671 90.3002 94.022L87.8112 98.7686C85.1774 97.061 82.37 96.019 80.0836 96.019C77.7971 96.019 76.2343 97.2346 76.2343 98.8843V99.0001C76.2343 101.142 79.1864 102.039 82.399 103.139C86.393 104.47 90.908 106.409 90.908 111.648V111.764C90.908 117.899 86.4509 120.938 80.7493 120.938C75.0476 120.938 72.5586 119.433 69.1144 116.568L69.1434 116.597Z" fill="#35455B"/>
    <path d="M98.1436 96.9741H94.6705V91.2146H98.1436V83.1976H104.424V91.2146H111.804V96.9741H104.424V111.301C104.424 113.905 105.669 114.947 107.81 114.947C109.952 114.947 110.444 114.629 111.689 113.963V119.433C110.126 120.36 108.418 120.938 106.045 120.938C101.414 120.938 98.1436 118.797 98.1436 112.371V96.9741Z" fill="#35455B"/>
    <path d="M115.885 105.975V105.859C115.885 97.524 122.108 90.6068 130.53 90.6068C138.952 90.6068 145.117 97.4083 145.117 105.744V105.859C145.117 114.166 138.895 121.054 130.443 121.054C121.992 121.054 115.914 114.253 115.914 105.975H115.885ZM138.808 105.975V105.859C138.808 100.708 135.335 96.4532 130.414 96.4532C125.494 96.4532 122.166 100.65 122.166 105.744V105.859C122.166 110.953 125.639 115.208 130.53 115.208C135.421 115.208 138.837 111.011 138.837 105.975H138.808Z" fill="#35455B"/>
    <path d="M151.484 91.2146H157.765V95.6428C159.53 93.038 161.904 90.6068 166.129 90.6068C170.355 90.6068 172.873 92.6617 174.32 95.7586C176.491 92.6617 179.414 90.6068 183.553 90.6068C189.515 90.6068 193.161 94.6298 193.161 101.779V120.417H186.881V103.833C186.881 99.2027 184.855 96.7136 181.324 96.7136C177.793 96.7136 175.449 99.2606 175.449 103.949V120.417H169.168V103.776C169.168 99.2316 167.084 96.6847 163.611 96.6847C160.138 96.6847 157.736 99.4342 157.736 103.92V120.389H151.456V91.1857L151.484 91.2146Z" fill="#35455B"/>
    <path d="M199.268 105.917V105.802C199.268 97.4661 204.825 90.6068 212.669 90.6068C220.512 90.6068 225.808 97.9003 225.808 106.323C225.808 114.745 225.751 107.538 225.693 108.204H205.549C206.214 112.95 209.398 115.613 213.421 115.613C217.444 115.613 218.66 114.397 220.83 112.14L224.506 115.613C221.901 118.941 218.341 121.083 213.305 121.083C205.375 121.083 199.239 114.947 199.239 105.946L199.268 105.917ZM219.557 103.776C219.152 99.4632 216.75 96.0769 212.611 96.0769C208.472 96.0769 206.07 99.2316 205.491 103.776H219.557Z" fill="#35455B"/>
    <path d="M238.398 91.2146V97.7845C240.106 93.4142 243.29 90.4331 248.094 90.6647V97.7556H247.718C242.219 97.7556 238.369 101.576 238.369 109.304V120.417H232.089V91.2146H238.398Z" fill="#35455B"/>
    <path d="M254.288 81.7215H260.684V114.224H279.786V120.417H254.317V81.7215H254.288Z" fill="#F47821"/>
    <path d="M283.664 105.975V105.859C283.664 97.524 289.887 90.6068 298.309 90.6068C306.731 90.6068 312.896 97.4083 312.896 105.744V105.859C312.896 114.166 306.673 121.054 298.222 121.054C289.771 121.054 283.693 114.253 283.693 105.975H283.664ZM306.587 105.975V105.859C306.587 100.708 303.114 96.4532 298.193 96.4532C293.273 96.4532 289.945 100.65 289.945 105.744V105.859C289.945 110.953 293.418 115.208 298.309 115.208C303.2 115.208 306.616 111.011 306.616 105.975H306.587Z" fill="#F47821"/>
    <path d="M325.544 115.874V120.417H319.263V80.0718H325.544V96.1059C327.57 93.0669 330.435 90.6357 334.892 90.6357C341.318 90.6357 347.598 96.048 347.598 105.773V105.888C347.598 115.555 341.375 121.025 334.892 121.025C328.409 121.025 327.483 118.594 325.544 115.874ZM341.202 105.859V105.744C341.202 100.1 337.613 96.3953 333.358 96.3953C329.104 96.3953 325.37 100.158 325.37 105.744V105.859C325.37 111.445 329.104 115.208 333.358 115.208C337.613 115.208 341.202 111.619 341.202 105.859Z" fill="#F47821"/>
    <path d="M360.362 115.874V120.417H354.081V80.0718H360.362V96.1059C362.388 93.0669 365.253 90.6357 369.71 90.6357C376.135 90.6357 382.416 96.048 382.416 105.773V105.888C382.416 115.555 376.193 121.025 369.71 121.025C363.227 121.025 362.301 118.594 360.362 115.874ZM376.02 105.859V105.744C376.02 100.1 372.431 96.3953 368.176 96.3953C363.922 96.3953 360.188 100.158 360.188 105.744V105.859C360.188 111.445 363.922 115.208 368.176 115.208C372.431 115.208 376.02 111.619 376.02 105.859Z" fill="#F47821"/>
    <path d="M406.583 91.2146H413.124L402.241 121.228C400.071 127.19 397.611 129.419 393.211 129.419C388.812 129.419 388.638 128.753 386.728 127.653L388.87 122.675C389.999 123.341 391.243 123.775 392.546 123.775C393.848 123.775 395.411 122.935 396.424 120.446L385.021 91.1857H391.764L399.492 112.863L406.612 91.1857L406.583 91.2146Z" fill="#F47821"/>
    <path fill-rule="evenodd" clip-rule="evenodd" d="M239.151 0.277832L157.91 21.0874L142.049 15.7041C141.644 15.5594 141.181 15.6173 140.834 15.8778C140.486 16.1383 140.255 16.5434 140.255 16.9776L139.994 49.3062C139.994 49.7404 140.197 50.1456 140.544 50.406C140.892 50.6665 141.355 50.7244 141.76 50.6086L157.707 45.4858L167.142 48.0617L166.998 65.7166C166.998 66.3533 167.432 66.9032 168.068 67.0479L195.187 72.6627C195.274 72.6627 195.361 72.6627 195.448 72.6917C195.766 72.6917 196.056 72.6048 196.316 72.4022C196.635 72.1418 196.808 71.7655 196.808 71.3603L196.924 56.2235L238.572 67.5978C238.688 67.5978 238.804 67.6557 238.919 67.6557C239.209 67.6557 239.498 67.5689 239.759 67.3952C240.106 67.1347 240.28 66.7585 240.309 66.3243L240.83 1.63812C240.83 1.23293 240.627 0.827737 240.309 0.567256C239.961 0.306774 239.556 0.219946 239.122 0.335716L239.151 0.277832ZM194.146 69.6527L169.747 64.6168L169.863 48.7853L194.261 55.442L194.146 69.6527ZM237.617 64.501L158.025 42.7653C157.91 42.7363 157.794 42.7074 157.678 42.7074C157.562 42.7074 157.389 42.7074 157.244 42.7653L142.715 47.4539L142.946 18.8588L157.418 23.779C157.678 23.8659 157.939 23.8659 158.199 23.808L238.109 3.34572L237.617 64.5299V64.501Z" fill="#35455B"/>
    <path d="M272 32.6931H255.185C254.53 32.6931 253.998 33.2244 253.998 33.8798V34.3428C253.998 34.9982 254.53 35.5295 255.185 35.5295H272C272.656 35.5295 273.187 34.9982 273.187 34.3428V33.8798C273.187 33.2244 272.656 32.6931 272 32.6931Z" fill="#F47821"/>
    <path d="M271.463 0.191585L254.399 11.2731C253.849 11.63 253.693 12.3649 254.05 12.9146L254.333 13.3515C254.69 13.9011 255.425 14.0573 255.975 13.7004L273.039 2.6189C273.588 2.26196 273.745 1.52703 273.388 0.977393L273.104 0.540476C272.747 -0.00915712 272.012 -0.165352 271.463 0.191585Z" fill="#F47821"/>
    <path d="M272.742 65.4711L255.814 54.182C255.269 53.8184 254.532 53.9656 254.169 54.5108L253.88 54.9443C253.516 55.4895 253.663 56.2263 254.209 56.5899L271.136 67.879C271.681 68.2426 272.418 68.0954 272.782 67.5502L273.071 67.1168C273.434 66.5715 273.287 65.8348 272.742 65.4711Z" fill="#F47821"/>
    <path d="M282.131 144.871C283.031 144.372 284.03 144.122 285.063 144.138C286.179 144.122 287.278 144.405 288.228 144.971C289.178 145.538 289.944 146.337 290.444 147.32C291.01 148.403 291.276 149.619 291.26 150.835C291.276 152.051 291.01 153.267 290.444 154.367C289.427 156.399 287.328 157.665 285.063 157.632C284.03 157.648 282.997 157.398 282.098 156.899C281.298 156.466 280.632 155.816 280.165 155.033V157.448H278V139.824H280.165V146.804C280.632 146.004 281.315 145.354 282.131 144.905V144.871ZM288.461 148.253C288.095 147.553 287.545 146.97 286.862 146.587C286.179 146.204 285.413 146.004 284.63 146.004C283.864 146.004 283.097 146.187 282.431 146.587C281.748 146.987 281.182 147.57 280.815 148.27C279.999 149.886 279.999 151.801 280.815 153.417C281.182 154.117 281.748 154.716 282.431 155.116C283.097 155.499 283.864 155.699 284.63 155.699C285.413 155.699 286.179 155.516 286.862 155.116C287.545 154.716 288.111 154.133 288.461 153.417C288.861 152.617 289.061 151.718 289.044 150.818C289.061 149.936 288.861 149.053 288.445 148.253H288.461Z" fill="#88919F"/>
    <path d="M305.353 144.355L297.49 163.545H295.241L297.823 157.265L292.559 144.355H294.975L299.073 154.933L303.104 144.355H305.353Z" fill="#88919F"/>
    <path d="M327.875 142.939H319.096V146.737H325.543V150.002H319.096V154.75H328.208V158.215H315.265V139.474H327.875V142.939Z" fill="#88919F"/>
    <path d="M343.667 144.155L336.703 158.548H335.421L328.458 144.155H332.489L336.037 152.101L339.585 144.155H343.65H343.667Z" fill="#88919F"/>
    <path d="M357.86 152.484H347.998C348.448 154.267 349.897 155.266 351.946 155.266C353.478 155.266 354.728 154.733 355.861 153.85L357.443 156.466C355.861 157.798 353.978 158.564 351.813 158.564C347.348 158.564 344.117 155.349 344.117 151.202C344.117 147.054 347.332 143.839 351.48 143.839C355.627 143.839 358.093 146.737 358.093 150.369C358.093 151.168 357.943 151.984 357.843 152.468L357.86 152.484ZM348.015 149.786H354.411C354.378 148.003 352.995 146.937 351.38 146.937C349.764 146.937 348.448 148.02 348.031 149.786H348.015Z" fill="#88919F"/>
    <path d="M369.337 144.155V147.537H368.321C366.105 147.537 364.54 148.669 364.54 151.202V158.215H360.708V144.155H364.223V145.838C365.156 144.638 366.555 143.989 368.088 143.989C368.604 143.989 368.971 144.038 369.337 144.155Z" fill="#88919F"/>
    <path d="M385.396 145.521C385.396 149.136 382.58 151.601 378.632 151.601H375.417V158.215H371.586V139.474H378.632C382.58 139.474 385.396 141.856 385.396 145.521ZM375.417 142.856V148.253H378.632C380.415 148.253 381.464 147.154 381.464 145.521C381.464 143.889 380.415 142.856 378.632 142.856H375.417Z" fill="#88919F"/>
    <path d="M386.928 158.214H390.76V151.601C390.76 149.669 390.809 147.953 391.809 147.337C392.659 146.804 393.725 147.02 394.524 147.537L396.607 144.538C396.607 144.538 395.54 144.055 394.708 143.855C393.175 143.472 390.959 143.605 389.56 144.438C388.161 145.271 387.011 146.92 386.945 148.803C386.911 149.719 386.911 158.231 386.911 158.231L386.928 158.214Z" fill="#88919F"/>
    <path d="M413.415 151.185C413.415 155.366 410 158.548 405.835 158.548C404.269 158.548 403.103 158.281 402.104 157.732C401.271 157.265 400.538 156.599 399.805 155.699C399.688 155.566 399.588 155.433 399.488 155.299C398.705 154.283 395.474 148.869 395.474 148.869L397.506 145.821C397.506 145.821 401.254 151.718 402.37 152.967C403.669 154.417 404.552 155.033 405.885 155.033C407.951 155.033 409.516 153.417 409.516 151.235C409.516 149.053 407.951 147.37 405.885 147.37C404.985 147.37 404.203 147.653 403.603 148.153C403.003 148.653 402.503 149.219 401.937 149.985L399.755 146.904C401.121 145.121 403.386 143.855 405.902 143.855C410.05 143.855 413.448 147.037 413.448 151.185H413.415Z" fill="#88919F"/>
    <path d="M402.104 157.715C401.254 157.298 400.538 156.582 399.805 155.683C400.538 156.566 401.271 157.248 402.104 157.715Z" fill="#88919F"/>
</svg>
