<svg width="260" height="57" viewBox="0 0 260 57" fill="none" xmlns="http://www.w3.org/2000/svg">
    <g clip-path="url(#clip0_47_1397)">
        <path d="M40.7042 14.1411H20.0946V23.1624H35.2767V30.8635H20.0946V42.0117H41.5843V50.1529H11V6H40.7042V14.1411Z" fill="#323343"/>
        <path d="M77.8897 17.075L61.5341 50.9597H58.527L42.098 17.075H51.5593L59.9205 35.7776L68.2817 17.075H77.8897Z" fill="#323343"/>
        <path d="M111.334 36.6576H88.1573C89.2575 40.8382 92.6313 43.1852 97.472 43.1852C101.066 43.1852 104 41.9383 106.713 39.8114L110.454 45.9722C106.713 49.126 102.313 50.8862 97.1786 50.8862C86.6905 50.8862 79.0627 43.3319 79.0627 33.5772C79.0627 23.8225 86.6171 16.2681 96.3718 16.2681C106.127 16.2681 111.921 23.089 111.921 31.6702C111.921 33.5772 111.627 35.4841 111.334 36.6576ZM88.1573 30.2767H103.193C103.119 26.0961 99.819 23.6024 96.0051 23.6024C92.1912 23.6024 89.1108 26.1695 88.1573 30.2767Z" fill="#323343"/>
        <path d="M138.398 17.0748V25.0693H135.978C130.77 25.0693 127.103 27.7096 127.103 33.7238V50.2261H118.082V17.0748H126.369V20.962C128.57 18.175 131.87 16.6348 135.464 16.6348C136.638 16.6348 137.518 16.7815 138.398 17.0748Z" fill="#323343"/>
        <path d="M176.17 20.2287C176.17 28.7365 169.569 34.5307 160.254 34.5307H152.7V50.0795H143.679V6H160.254C169.496 6 176.17 11.6475 176.17 20.2287ZM152.7 13.9945V26.6829H160.254C164.435 26.6829 166.929 24.0425 166.929 20.2287C166.929 16.4148 164.435 13.9211 160.254 13.9211H152.7V13.9945Z" fill="#F9B30C"/>
        <path d="M179.763 50.1529H188.785V34.604C188.785 30.0567 188.931 26.0228 191.278 24.556C193.259 23.3091 195.826 23.8225 197.659 24.996L202.573 17.955C202.573 17.955 200.079 16.8549 198.099 16.3415C194.505 15.4613 189.298 15.7547 185.998 17.735C182.697 19.6419 179.983 23.6025 179.837 28.0031C179.763 30.0567 179.763 50.1529 179.763 50.1529Z" fill="#F9B30C"/>
        <path d="M242.179 33.577C242.179 43.4051 234.185 50.8861 224.357 50.8861C220.689 50.8861 217.902 50.226 215.555 48.9792C213.722 47.9524 212.182 46.5588 210.568 44.6519C210.201 44.2118 209.835 43.7718 209.468 43.2584C207.634 40.9114 200.007 28.0762 200.007 28.0762L204.774 20.8886C204.774 20.8886 213.575 34.8239 216.216 37.6843C219.296 41.1314 221.35 42.5249 224.503 42.5249C229.417 42.5249 233.085 38.7111 233.085 33.577C233.085 28.443 229.417 24.4824 224.503 24.4824C222.376 24.4824 220.543 25.1425 219.076 26.316C217.682 27.4895 216.509 28.8097 215.189 30.6433L210.055 23.3823C213.282 19.2017 218.636 16.1946 224.503 16.1946C234.111 16.2679 242.179 23.8223 242.179 33.577Z" fill="#F9B30C"/>
        <path d="M215.482 48.9059C213.648 48.0258 212.035 46.4855 210.494 44.5786C212.108 46.4855 213.648 47.9524 215.482 48.9059Z" fill="#F9B30C"/>
        <path d="M245.553 14.3613C245.113 14.3613 244.599 14.2879 244.232 14.0679C243.792 13.9212 243.426 13.6278 243.132 13.3344C242.839 13.0411 242.546 12.601 242.399 12.1609C242.252 11.7209 242.105 11.2808 242.105 10.7674C242.105 10.254 242.179 9.81395 242.399 9.37389C242.546 8.93383 242.839 8.56711 243.132 8.20039C243.426 7.90702 243.792 7.61365 244.232 7.46696C244.672 7.32027 245.113 7.17358 245.553 7.17358C245.993 7.17358 246.433 7.24693 246.873 7.46696C247.313 7.61365 247.68 7.90702 247.973 8.20039C248.266 8.49377 248.56 8.93383 248.706 9.37389C248.926 9.81395 249 10.254 249 10.7674C249 11.2808 248.926 11.7209 248.706 12.1609C248.486 12.601 248.266 12.9677 247.973 13.3344C247.68 13.6278 247.313 13.9212 246.873 14.0679C246.433 14.2879 245.993 14.3613 245.553 14.3613ZM245.553 13.6278C245.919 13.6278 246.286 13.5545 246.653 13.4078C247.019 13.2611 247.24 13.0411 247.533 12.821C247.753 12.601 247.973 12.3076 248.12 11.9409C248.266 11.6475 248.34 11.2808 248.34 10.9141V10.5474C248.34 10.1807 248.266 9.8873 248.12 9.52058C247.973 9.22721 247.826 8.93383 247.533 8.64046C247.313 8.42043 247.019 8.20039 246.653 8.05371C246.286 7.90702 245.993 7.83368 245.553 7.83368C245.113 7.83368 244.819 7.90702 244.452 8.05371C244.086 8.20039 243.866 8.42043 243.572 8.64046C243.279 8.86049 243.132 9.15386 242.986 9.52058C242.839 9.81395 242.766 10.1807 242.766 10.5474V10.9141C242.766 11.2808 242.839 11.5742 242.986 11.9409C243.132 12.2343 243.279 12.5277 243.572 12.821C243.792 13.0411 244.086 13.2611 244.452 13.4078C244.819 13.5545 245.186 13.6278 245.553 13.6278ZM244.966 12.6744H244.232V9.00717H245.773C246.139 9.00717 246.359 9.08052 246.579 9.30055C246.799 9.52058 246.873 9.74061 246.873 10.1073C246.873 10.4007 246.799 10.6207 246.653 10.7674C246.506 10.9141 246.359 11.0608 246.139 11.1341L247.019 12.601H246.213L245.479 11.2075H244.893L244.966 12.6744ZM245.773 10.6941C246.066 10.6941 246.139 10.5474 246.139 10.3274V9.96064C246.139 9.74061 245.993 9.59392 245.773 9.59392H244.966V10.6941H245.773Z" fill="#F9B30C"/>
    </g>
    <defs>
        <clipPath id="clip0_47_1397">
            <rect width="238" height="44.9596" fill="white" transform="translate(11 6)"/>
        </clipPath>
    </defs>
</svg>
