<svg width="315" height="260" viewBox="0 0 315 260" fill="none" xmlns="http://www.w3.org/2000/svg">
    <path d="M152.809 236.991C153.894 236.389 155.098 236.088 156.343 236.108C157.688 236.088 159.013 236.429 160.158 237.111C161.302 237.794 162.226 238.757 162.828 239.941C163.511 241.246 163.832 242.711 163.812 244.176C163.832 245.641 163.511 247.106 162.828 248.431C161.603 250.88 159.074 252.405 156.343 252.365C155.098 252.385 153.854 252.084 152.769 251.482C151.806 250.96 151.003 250.177 150.44 249.234V252.144H147.83V230.91H150.44V239.319C151.003 238.356 151.826 237.573 152.809 237.031V236.991ZM160.439 241.065C159.997 240.222 159.335 239.52 158.511 239.058C157.688 238.597 156.765 238.356 155.821 238.356C154.898 238.356 153.974 238.577 153.171 239.058C152.348 239.54 151.665 240.242 151.223 241.085C150.24 243.032 150.24 245.34 151.223 247.287C151.665 248.13 152.348 248.853 153.171 249.334C153.974 249.796 154.898 250.037 155.821 250.037C156.765 250.037 157.688 249.816 158.511 249.334C159.335 248.853 160.017 248.15 160.439 247.287C160.921 246.324 161.162 245.24 161.142 244.156C161.162 243.092 160.921 242.029 160.419 241.065H160.439Z" fill="#252424"/>
    <path d="M180.797 236.369L171.321 259.49H168.61L171.722 251.923L165.378 236.369H168.289L173.228 249.113L178.087 236.369H180.797Z" fill="#252424"/>
    <path d="M207.942 234.663H197.361V239.239H205.131V243.173H197.361V248.893H208.343V253.067H192.743V230.488H207.942V234.663Z" fill="#252424"/>
    <path d="M226.975 236.128L218.583 253.469H217.037L208.644 236.128H213.503L217.78 245.702L222.056 236.128H226.955H226.975Z" fill="#252424"/>
    <path d="M244.081 246.163H232.195C232.737 248.311 234.484 249.515 236.953 249.515C238.801 249.515 240.306 248.873 241.672 247.809L243.579 250.96C241.672 252.566 239.403 253.489 236.793 253.489C231.412 253.489 227.517 249.615 227.517 244.618C227.517 239.62 231.392 235.747 236.391 235.747C241.39 235.747 244.362 239.239 244.362 243.614C244.362 244.578 244.181 245.561 244.061 246.143L244.081 246.163ZM232.215 242.912H239.925C239.885 240.764 238.218 239.48 236.271 239.48C234.323 239.48 232.737 240.784 232.235 242.912H232.215Z" fill="#252424"/>
    <path d="M257.914 236.128V240.202H256.689C254.019 240.202 252.132 241.567 252.132 244.618V253.067H247.514V236.128H251.75V238.155C252.875 236.71 254.561 235.927 256.408 235.927C257.031 235.927 257.472 235.987 257.914 236.128Z" fill="#252424"/>
    <path d="M277.269 237.774C277.269 242.129 273.876 245.1 269.117 245.1H265.242V253.067H260.625V230.488H269.117C273.876 230.488 277.269 233.358 277.269 237.774ZM265.242 234.563V241.065H269.117C271.265 241.065 272.53 239.741 272.53 237.774C272.53 235.807 271.265 234.563 269.117 234.563H265.242Z" fill="#252424"/>
    <path d="M279.116 253.068H283.733V245.1C283.733 242.771 283.794 240.704 284.998 239.962C286.022 239.319 287.307 239.58 288.271 240.202L290.781 236.59C290.781 236.59 289.496 236.008 288.492 235.767C286.645 235.305 283.974 235.466 282.288 236.469C280.601 237.473 279.216 239.46 279.136 241.728C279.096 242.832 279.096 253.088 279.096 253.088L279.116 253.068Z" fill="#252424"/>
    <path d="M311.039 244.598C311.039 249.635 306.923 253.469 301.903 253.469C300.016 253.469 298.611 253.148 297.406 252.485C296.402 251.924 295.519 251.121 294.635 250.037C294.495 249.876 294.374 249.716 294.254 249.555C293.31 248.331 289.415 241.808 289.415 241.808L291.865 238.135C291.865 238.135 296.382 245.24 297.727 246.745C299.293 248.491 300.358 249.234 301.964 249.234C304.453 249.234 306.341 247.287 306.341 244.658C306.341 242.029 304.453 240.002 301.964 240.002C300.88 240.002 299.936 240.343 299.213 240.945C298.49 241.547 297.888 242.23 297.205 243.153L294.575 239.44C296.222 237.292 298.952 235.767 301.984 235.767C306.983 235.767 311.079 239.6 311.079 244.598H311.039Z" fill="#252424"/>
    <path d="M297.406 252.465C296.382 251.964 295.519 251.101 294.635 250.017C295.519 251.081 296.402 251.903 297.406 252.465Z" fill="#252424"/>
    <path d="M312.785 234.763C312.544 234.763 312.303 234.723 312.103 234.623C311.882 234.523 311.701 234.402 311.541 234.242C311.38 234.081 311.259 233.88 311.159 233.66C311.059 233.439 311.019 233.198 311.019 232.937C311.019 232.676 311.059 232.435 311.159 232.214C311.259 231.994 311.38 231.793 311.541 231.632C311.701 231.472 311.882 231.331 312.103 231.251C312.324 231.151 312.544 231.111 312.785 231.111C313.026 231.111 313.247 231.151 313.468 231.251C313.689 231.351 313.87 231.472 314.03 231.632C314.191 231.793 314.311 231.994 314.412 232.214C314.512 232.435 314.552 232.676 314.552 232.937C314.552 233.198 314.512 233.439 314.412 233.66C314.311 233.88 314.191 234.081 314.03 234.242C313.87 234.402 313.689 234.543 313.468 234.623C313.247 234.723 313.026 234.763 312.785 234.763ZM312.785 234.402C312.986 234.402 313.167 234.362 313.348 234.282C313.508 234.201 313.669 234.101 313.789 233.981C313.91 233.86 314.01 233.7 314.07 233.539C314.131 233.379 314.171 233.198 314.171 233.017V232.817C314.171 232.636 314.131 232.475 314.07 232.295C314.01 232.134 313.91 231.974 313.789 231.853C313.669 231.733 313.528 231.632 313.348 231.552C313.187 231.472 312.986 231.432 312.785 231.432C312.585 231.432 312.404 231.472 312.223 231.552C312.063 231.632 311.902 231.733 311.782 231.853C311.661 231.974 311.561 232.134 311.5 232.295C311.44 232.455 311.4 232.636 311.4 232.817V233.017C311.4 233.198 311.44 233.358 311.5 233.539C311.561 233.7 311.661 233.86 311.782 233.981C311.902 234.101 312.043 234.201 312.223 234.282C312.384 234.362 312.585 234.402 312.785 234.402ZM312.484 233.88H312.123V232.014H312.926C313.107 232.014 313.247 232.074 313.348 232.174C313.448 232.275 313.508 232.415 313.508 232.576C313.508 232.716 313.468 232.837 313.408 232.917C313.348 232.997 313.267 233.077 313.167 233.118L313.609 233.88H313.207L312.805 233.158H312.484V233.88ZM312.906 232.897C313.046 232.897 313.107 232.837 313.107 232.716V232.516C313.107 232.395 313.046 232.335 312.906 232.335H312.484V232.897H312.906Z" fill="#252424"/>
    <path fill-rule="evenodd" clip-rule="evenodd" d="M15.8934 85.3867C24.68 85.3867 31.7866 92.5023 31.7866 101.3V113.461C31.7866 122.258 24.68 129.374 15.8934 129.374C7.10678 129.374 0 122.258 0 113.59V101.429C0 92.5023 7.10678 85.3867 15.8934 85.3867Z" fill="#EE4013"/>
    <path fill-rule="evenodd" clip-rule="evenodd" d="M294.867 85.3867C303.653 85.3867 310.762 92.5023 310.762 101.3V113.461C310.762 122.258 303.653 129.374 294.867 129.374C286.082 129.374 278.973 122.258 278.973 113.461V101.3C278.973 92.5023 286.082 85.3867 294.867 85.3867Z" fill="#2E8CF0"/>
    <path fill-rule="evenodd" clip-rule="evenodd" d="M62.4106 65.9807C71.1973 65.9807 78.3039 73.0963 78.3039 81.8937V113.59C78.3039 122.388 71.1973 129.503 62.4106 129.503C53.624 129.503 46.5173 122.258 46.5173 113.59V81.7642C46.5173 72.9668 53.624 65.9807 62.4106 65.9807Z" fill="#FF9902"/>
    <path fill-rule="evenodd" clip-rule="evenodd" d="M248.351 65.9807C257.136 65.9807 264.243 73.0963 264.243 81.8937V113.59C264.243 122.388 257.136 129.503 248.351 129.503C239.563 129.503 232.457 122.388 232.457 113.59V81.7642C232.457 72.9668 239.563 65.9807 248.351 65.9807Z" fill="#2E8CF0"/>
    <path fill-rule="evenodd" clip-rule="evenodd" d="M108.928 36.6129C117.714 36.6129 124.821 43.7283 124.821 52.5257V113.59C124.821 122.388 117.714 129.503 108.928 129.503C100.141 129.503 93.0345 122.258 93.0345 113.59V52.5257C93.0345 43.7283 100.141 36.6129 108.928 36.6129Z" fill="#17BE6B"/>
    <path fill-rule="evenodd" clip-rule="evenodd" d="M201.833 36.6129C210.62 36.6129 217.726 43.7283 217.726 52.5257V113.59C217.726 122.388 210.62 129.503 201.833 129.503C193.046 129.503 185.94 122.388 185.94 113.59V52.5257C185.94 43.7283 193.175 36.6129 201.833 36.6129Z" fill="#2E8CF0"/>
    <path fill-rule="evenodd" clip-rule="evenodd" d="M155.445 0C164.231 0 171.338 7.11556 171.338 15.913V113.59C171.338 122.388 164.231 129.503 155.445 129.503C146.658 129.503 139.552 122.258 139.552 113.59V15.913C139.552 7.11556 146.658 0 155.445 0Z" fill="#2E8CF0"/>
    <path d="M229.684 163.357H222.557C222.557 150.212 233.187 139.697 246.315 139.697C259.443 139.697 269.945 150.212 269.945 163.357H262.817C262.817 154.218 255.441 146.832 246.189 146.832C236.937 146.832 229.684 154.218 229.684 163.357ZM303.078 163.357C303.078 154.218 295.702 146.832 286.45 146.832C277.198 146.832 269.82 154.218 269.82 163.357V215.31H262.694V163.357C262.694 154.218 255.316 146.832 246.064 146.832C236.812 146.832 229.436 154.218 229.436 163.357V215.31H222.557V163.357C222.557 150.212 233.187 139.697 246.315 139.697C254.816 139.697 262.318 144.203 266.445 150.838C270.57 144.078 278.072 139.697 286.576 139.697C299.704 139.697 310.206 150.212 310.206 163.357V215.31H303.078V163.357Z" fill="#17233D"/>
    <path d="M204.553 202.29H213.056C209.18 210.052 201.176 215.31 191.924 215.31C178.796 215.31 168.294 204.794 168.294 191.65C168.294 178.505 178.921 167.989 191.924 167.989C204.927 167.989 215.557 178.505 215.557 191.65C215.557 192.901 215.431 194.028 215.306 195.155H175.67C177.295 202.541 183.923 208.174 191.924 208.174C196.925 208.174 201.427 205.921 204.553 202.29ZM175.67 188.144H208.055C206.428 180.758 199.802 175.125 191.799 175.125C183.797 175.125 177.295 180.758 175.67 188.144Z" fill="#17233D"/>
    <path d="M150.413 215.31H120.78V208.174H150.413C154.038 208.174 156.916 205.295 156.916 201.664C156.916 198.034 154.038 195.155 150.413 195.155H134.41C126.908 195.155 120.78 189.021 120.78 181.509C120.78 173.998 126.908 167.864 134.41 167.864H163.416V175H134.41C130.782 175 127.908 177.879 127.908 181.509C127.908 185.14 130.782 188.019 134.41 188.019H150.413C157.915 188.019 164.041 194.153 164.041 201.664C164.041 209.176 157.915 215.31 150.413 215.31Z" fill="#17233D"/>
    <path fill-rule="evenodd" clip-rule="evenodd" d="M106.527 139.697H113.655V215.31H106.527V139.697Z" fill="#17233D"/>
    <path d="M92.3994 191.65H99.5248C99.5248 204.669 88.8972 215.31 75.8945 215.31C62.8894 215.31 52.2619 204.794 52.2619 191.65H59.3895C59.3895 200.788 66.7659 208.174 76.02 208.174C85.2718 208.174 92.3994 200.788 92.3994 191.65ZM99.3993 191.65C99.3993 204.669 88.7717 215.31 75.769 215.31C62.7663 215.31 52.1387 204.794 52.1387 191.65V167.989H59.264V191.65C59.264 200.788 66.6404 208.174 75.8945 208.174C85.1463 208.174 92.5226 200.788 92.5226 191.65V167.989H99.6503V191.65H99.3993Z" fill="#17233D"/>
    <path d="M23.6303 208.174C32.7566 208.174 40.2584 200.788 40.2584 191.65C40.2584 182.511 32.8821 175.125 23.6303 175.125C14.3785 175.125 7.12537 182.511 7.12537 191.65C7.12537 200.788 14.5017 208.174 23.6303 208.174ZM7.12537 208.55V236.592H0V191.65C0 178.63 10.6276 167.989 23.6303 167.989C36.633 167.989 47.2606 178.505 47.2606 191.65C47.2606 204.794 36.633 215.31 23.6303 215.31C17.2533 215.31 11.3759 212.681 7.12537 208.55Z" fill="#17233D"/>
</svg>
